<?xml version="1.0" encoding="UTF-8" standalone="no"?>
<!DOCTYPE svg PUBLIC "-//W3C//DTD SVG 1.1//EN" "http://www.w3.org/Graphics/SVG/1.1/DTD/svg11.dtd">
<svg width="320" height="320" xmlns="http://www.w3.org/2000/svg" xmlns:xlink="http://www.w3.org/1999/xlink">
  <rect id="cell" x="0" y="0" width="40" height="40" stroke="none" />
<use href="#cell" x="0" y="0" fill="#5d4140" />
<use href="#cell" x="40" y="0" fill="#2abc4b" />
<use href="#cell" x="80" y="0" fill="#2a76b9" />
<use href="#cell" x="120" y="0" fill="#719d91" />
<use href="#cell" x="160" y="0" fill="#1017c5" />
<use href="#cell" x="200" y="0" fill="#924140" />
<use href="#cell" x="240" y="0" fill="#5dbc4b" />
<use href="#cell" x="280" y="0" fill="#2a76b9" />
<use href="#cell" x="0" y="40" fill="#2a9d91" />
<use href="#cell" x="40" y="40" fill="#7117c5" />
<use href="#cell" x="80" y="40" fill="#104140" />
<use href="#cell" x="120" y="40" fill="#92bc4b" />
<use href="#cell" x="160" y="40" fill="#5d76b9" />
<use href="#cell" x="200" y="40" fill="#2a9d91" />
<use href="#cell" x="240" y="40" fill="#2a17c5" />
<use href="#cell" x="280" y="40" fill="#714140" />
<use href="#cell" x="0" y="80" fill="#10bc4b" />
<use href="#cell" x="40" y="80" fill="#9276b9" />
<use href="#cell" x="80" y="80" fill="#5d9d91" />
<use href="#cell" x="120" y="80" fill="#2a17c5" />
<use href="#cell" x="160" y="80" fill="#2a4140" />
<use href="#cell" x="200" y="80" fill="#71bc4b" />
<use href="#cell" x="240" y="80" fill="#1076b9" />
<use href="#cell" x="280" y="80" fill="#929d91" />
<use href="#cell" x="0" y="120" fill="#5d17c5" />
<use href="#cell" x="40" y="120" fill="#2a4140" />
<use href="#cell" x="80" y="120" fill="#2abc4b" />
<use href="#cell" x="120" y="120" fill="#7176b9" />
<use href="#cell" x="160" y="120" fill="#109d91" />
<use href="#cell" x="200" y="120" fill="#9217c5" />
<use href="#cell" x="240" y="120" fill="#5d4140" />
<use href="#cell" x="280" y="120" fill="#2abc4b" />
<use href="#cell" x="0" y="160" fill="#2a76b9" />
<use href="#cell" x="40" y="160" fill="#719d91" />
<use href="#cell" x="80" y="160" fill="#1017c5" />
<use href="#cell" x="120" y="160" fill="#924140" />
<use href="#cell" x="160" y="160" fill="#5dbc4b" />
<use href="#cell" x="200" y="160" fill="#2a76b9" />
<use href="#cell" x="240" y="160" fill="#2a9d91" />
<use href="#cell" x="280" y="160" fill="#7117c5" />
<use href="#cell" x="0" y="200" fill="#104140" />
<use href="#cell" x="40" y="200" fill="#92bc4b" />
<use href="#cell" x="80" y="200" fill="#5d76b9" />
<use href="#cell" x="120" y="200" fill="#2a9d91" />
<use href="#cell" x="160" y="200" fill="#2a17c5" />
<use href="#cell" x="200" y="200" fill="#714140" />
<use href="#cell" x="240" y="200" fill="#10bc4b" />
<use href="#cell" x="280" y="200" fill="#9276b9" />
<use href="#cell" x="0" y="240" fill="#5d9d91" />
<use href="#cell" x="40" y="240" fill="#2a17c5" />
<use href="#cell" x="80" y="240" fill="#2a4140" />
<use href="#cell" x="120" y="240" fill="#71bc4b" />
<use href="#cell" x="160" y="240" fill="#1076b9" />
<use href="#cell" x="200" y="240" fill="#929d91" />
<use href="#cell" x="240" y="240" fill="#5d17c5" />
<use href="#cell" x="280" y="240" fill="#2a4140" />
<use href="#cell" x="0" y="280" fill="#2abc4b" />
<use href="#cell" x="40" y="280" fill="#7176b9" />
<use href="#cell" x="80" y="280" fill="#109d91" />
<use href="#cell" x="120" y="280" fill="#9217c5" />
<use href="#cell" x="160" y="280" fill="#5d4140" />
<use href="#cell" x="200" y="280" fill="#2abc4b" />
<use href="#cell" x="240" y="280" fill="#2a76b9" />
<use href="#cell" x="280" y="280" fill="#719d91" />
  <filter id="blur">
    <feGaussianBlur in="SourceGraphic" stdDeviation="1" />
  </filter>
  <text x="160" y="160" font-size="24px" font-family="monospace" dominant-baseline="middle" text-anchor="middle" fill="#FFF" filter="url(#blur)">hello</text>
  <text x="160" y="160" font-size="24px" font-family="monospace" dominant-baseline="middle" text-anchor="middle" fill="#FFF">hello</text>
</svg>
