<?xml version="1.0" encoding="UTF-8" standalone="no"?>
<!DOCTYPE svg PUBLIC "-//W3C//DTD SVG 1.1//EN" "http://www.w3.org/Graphics/SVG/1.1/DTD/svg11.dtd">
<svg width="320" height="320" xmlns="http://www.w3.org/2000/svg" xmlns:xlink="http://www.w3.org/1999/xlink">
  <rect id="cell" x="0" y="0" width="40" height="40" stroke="none" />
<use href="#cell" x="0" y="0" fill="#bf8229" />
<use href="#cell" x="40" y="0" fill="#696f7a" />
<use href="#cell" x="80" y="0" fill="#3bb470" />
<use href="#cell" x="120" y="0" fill="#0cfdde" />
<use href="#cell" x="160" y="0" fill="#f19fa2" />
<use href="#cell" x="200" y="0" fill="#3f8229" />
<use href="#cell" x="240" y="0" fill="#bf6f7a" />
<use href="#cell" x="280" y="0" fill="#69b470" />
<use href="#cell" x="0" y="40" fill="#3bfdde" />
<use href="#cell" x="40" y="40" fill="#0c9fa2" />
<use href="#cell" x="80" y="40" fill="#f18229" />
<use href="#cell" x="120" y="40" fill="#3f6f7a" />
<use href="#cell" x="160" y="40" fill="#bfb470" />
<use href="#cell" x="200" y="40" fill="#69fdde" />
<use href="#cell" x="240" y="40" fill="#3b9fa2" />
<use href="#cell" x="280" y="40" fill="#0c8229" />
<use href="#cell" x="0" y="80" fill="#f16f7a" />
<use href="#cell" x="40" y="80" fill="#3fb470" />
<use href="#cell" x="80" y="80" fill="#bffdde" />
<use href="#cell" x="120" y="80" fill="#699fa2" />
<use href="#cell" x="160" y="80" fill="#3b8229" />
<use href="#cell" x="200" y="80" fill="#0c6f7a" />
<use href="#cell" x="240" y="80" fill="#f1b470" />
<use href="#cell" x="280" y="80" fill="#3ffdde" />
<use href="#cell" x="0" y="120" fill="#bf9fa2" />
<use href="#cell" x="40" y="120" fill="#698229" />
<use href="#cell" x="80" y="120" fill="#3b6f7a" />
<use href="#cell" x="120" y="120" fill="#0cb470" />
<use href="#cell" x="160" y="120" fill="#f1fdde" />
<use href="#cell" x="200" y="120" fill="#3f9fa2" />
<use href="#cell" x="240" y="120" fill="#bf8229" />
<use href="#cell" x="280" y="120" fill="#696f7a" />
<use href="#cell" x="0" y="160" fill="#3bb470" />
<use href="#cell" x="40" y="160" fill="#0cfdde" />
<use href="#cell" x="80" y="160" fill="#f19fa2" />
<use href="#cell" x="120" y="160" fill="#3f8229" />
<use href="#cell" x="160" y="160" fill="#bf6f7a" />
<use href="#cell" x="200" y="160" fill="#69b470" />
<use href="#cell" x="240" y="160" fill="#3bfdde" />
<use href="#cell" x="280" y="160" fill="#0c9fa2" />
<use href="#cell" x="0" y="200" fill="#f18229" />
<use href="#cell" x="40" y="200" fill="#3f6f7a" />
<use href="#cell" x="80" y="200" fill="#bfb470" />
<use href="#cell" x="120" y="200" fill="#69fdde" />
<use href="#cell" x="160" y="200" fill="#3b9fa2" />
<use href="#cell" x="200" y="200" fill="#0c8229" />
<use href="#cell" x="240" y="200" fill="#f16f7a" />
<use href="#cell" x="280" y="200" fill="#3fb470" />
<use href="#cell" x="0" y="240" fill="#bffdde" />
<use href="#cell" x="40" y="240" fill="#699fa2" />
<use href="#cell" x="80" y="240" fill="#3b8229" />
<use href="#cell" x="120" y="240" fill="#0c6f7a" />
<use href="#cell" x="160" y="240" fill="#f1b470" />
<use href="#cell" x="200" y="240" fill="#3ffdde" />
<use href="#cell" x="240" y="240" fill="#bf9fa2" />
<use href="#cell" x="280" y="240" fill="#698229" />
<use href="#cell" x="0" y="280" fill="#3b6f7a" />
<use href="#cell" x="40" y="280" fill="#0cb470" />
<use href="#cell" x="80" y="280" fill="#f1fdde" />
<use href="#cell" x="120" y="280" fill="#3f9fa2" />
<use href="#cell" x="160" y="280" fill="#bf8229" />
<use href="#cell" x="200" y="280" fill="#696f7a" />
<use href="#cell" x="240" y="280" fill="#3bb470" />
<use href="#cell" x="280" y="280" fill="#0cfdde" />
</svg>
